#!OML:ASF F:\VICON\USERDATA\INSTALL\rory3\rory3.ASF
:FULLY-SPECIFIED
:DEGREES
566
root 0.182755 18.1881 -4.37393 -7.74005 0.370948 6.64461
lowerback 14.1171 -2.15274 -12.8953
upperback 3.15702 -4.80377 -1.79307
thorax -3.61466 -2.29053 6.11159
lowerneck -13.796 -4.02794 -9.67336
upperneck 9.84033 -5.34907 13.3207
head 5.87599 -2.03971 5.35716
rclavicle 1.83627e-014 -1.70955e-014
rhumerus -21.6571 -3.62236 -52.5471
rradius 98.9424
rwrist -7.99233
rhand -17.7 11.2409
rfingers 7.12502
rthumb 8.5599 -18.5656
lclavicle 1.83627e-014 -1.70955e-014
lhumerus 40.5418 16.9081 62.4849
lradius 118.77
lwrist 14.1032
lhand -35.8585 7.06246
lfingers 7.12502
lthumb -8.97324 36.8516
rfemur -36.8948 8.58388 3.22521
rtibia 78.0662
rfoot -4.07514 -13.1346
rtoes -8.17486
lfemur -6.07318 5.89182 -27.5433
ltibia 33.1436
lfoot -17.6588 4.99778
ltoes 6.89286
567
root 0.220279 18.1999 -4.40273 -7.83384 0.535064 5.90257
lowerback 14.3831 -2.3827 -12.4555
upperback 3.35834 -5.05443 -1.59323
thorax -3.51458 -2.43276 6.12746
lowerneck -14.1065 -4.10164 -9.7418
upperneck 10.1125 -5.44775 13.3776
head 6.02964 -2.0712 5.37924
rclavicle -5.78463e-014 1.15295e-014
rhumerus -22.1587 -3.90852 -52.9249
rradius 97.8574
rwrist -8.27862
rhand -18.562 10.9607
rfingers 7.12502
rthumb 7.72789 -18.8781
lclavicle -5.78463e-014 1.15295e-014
lhumerus 41.1974 15.9628 63.5806
lradius 119.506
lwrist 13.8671
lhand -35.5747 7.14234
lfingers 7.12502
lthumb -8.69943 36.9431
rfemur -38.1416 8.41393 3.87544
rtibia 79.632
rfoot -4.07548 -13.5432
rtoes -8.43939
lfemur -6.15419 5.93499 -26.8329
ltibia 33.2713
lfoot -17.5336 4.7584
ltoes 6.91379
568
root 0.260769 18.2086 -4.43126 -7.84872 0.838913 5.54774
lowerback 14.5226 -2.63224 -12.3364
upperback 3.58456 -5.3613 -1.51412
thorax -3.29058 -2.60935 6.1869
lowerneck -14.2887 -4.14912 -9.81749
upperneck 10.1302 -5.49833 13.4666
head 6.07774 -2.08582 5.41557
rclavicle 5.60076e-014 1.90833e-014
rhumerus -22.5458 -4.36915 -53.307
rradius 96.7664
rwrist -8.45042
rhand -18.9859 10.9583
rfingers 7.12502
rthumb 7.3188 -18.8951
lclavicle 5.60076e-014 1.90833e-014
lhumerus 41.8438 15.0132 64.7223
lradius 120.219
lwrist 13.6416
lhand -34.9862 7.49227
lfingers 7.12502
lthumb -8.1314 37.3158
rfemur -39.4467 8.0964 3.98548
rtibia 81.1671
rfoot -4.07005 -13.6304
rtoes -8.65536
lfemur -6.28382 5.98043 -26.5903
ltibia 33.3504
lfoot -17.3833 4.49942
ltoes 7.08681
569
root 0.299712 18.2182 -4.45982 -7.85735 1.26084 5.32152
lowerback 14.7146 -2.91241 -12.3287
upperback 3.76405 -5.73777 -1.46847
thorax -3.12415 -2.81378 6.28667
lowerneck -14.266 -4.15496 -9.87184
upperneck 10.0231 -5.48409 13.4497
head 6.03955 -2.08496 5.41928
rclavicle 1.63997e-015 -1.78906e-014
rhumerus -22.9641 -4.8715 -53.6144
rradius 95.6633
rwrist -8.19504
rhand -18.6659 11.1821
rfingers 7.12502
rthumb 7.6276 -18.6604
lclavicle 1.63997e-015 -1.78906e-014
lhumerus 42.4167 14.0069 65.7768
lradius 120.96
lwrist 13.4088
lhand -34.5618 7.96916
lfingers 7.12502
lthumb -7.72187 37.8082
rfemur -40.737 7.70008 3.90923
rtibia 82.6697
rfoot -3.84919 -13.6113
rtoes -8.85087
lfemur -6.40596 5.85235 -26.5156
ltibia 33.4347
lfoot -17.2576 4.27694
ltoes 7.80076
570
root 0.332867 18.2263 -4.49092 -7.85958 1.73651 5.10661
lowerback 15.0535 -3.19319 -12.394
upperback 3.8906 -6.15093 -1.4112
thorax -3.07658 -3.02591 6.45939
lowerneck -14.3471 -4.13567 -9.89277
upperneck 10.0059 -5.44557 13.4504
head 6.04383 -2.06464 5.42649
rclavicle -2.60905e-014 -1.11319e-014
rhumerus -23.4067 -5.23161 -53.9156
rradius 94.6727
rwrist -7.98151
rhand -18.7772 11.0098
rfingers 7.12502
rthumb 7.52016 -18.8366
lclavicle -2.60905e-014 -1.11319e-014
lhumerus 42.9507 12.968 66.7307
lradius 121.809
lwrist 13.3138
lhand -34.2823 8.13789
lfingers 7.12502
lthumb -7.4521 37.9866
rfemur -42.0375 7.31582 3.81327
rtibia 84.1748
rfoot -3.66237 -13.477
rtoes -9.12831
lfemur -6.52176 5.65648 -26.4467
ltibia 33.4535
lfoot -17.0337 4.06838
ltoes 8.25701
